<svg width="512" height="512" viewBox="0 0 512 512" fill="none" xmlns="http://www.w3.org/2000/svg">
  <defs>
    <linearGradient id="bg" x1="0" y1="0" x2="512" y2="512" gradientUnits="userSpaceOnUse">
      <stop offset="0" stop-color="#1E293B"/>
      <stop offset="1" stop-color="#0F172A"/>
    </linearGradient>
    <linearGradient id="accent" x1="60" y1="100" x2="260" y2="400" gradientUnits="userSpaceOnUse">
      <stop offset="0" stop-color="#38BDF8"/>
      <stop offset="1" stop-color="#818CF8"/>
    </linearGradient>
  </defs>

  <!-- Background -->
  <rect width="512" height="512" rx="96" fill="url(#bg)"/>

  <!-- P: vertical stem + large bump -->
  <path d="M80 400V112" stroke="url(#accent)" stroke-width="42" stroke-linecap="round"/>
  <path d="M80 112H168C232 112 272 152 272 210C272 268 232 308 168 308H80"
        stroke="url(#accent)" stroke-width="42" stroke-linecap="round" stroke-linejoin="round" fill="none"/>

  <!-- 3 -->
  <path d="M300 156C300 156 320 118 368 118C416 118 446 150 446 190C446 224 424 246 394 252C428 258 452 286 452 322C452 366 416 398 366 398C314 398 294 360 294 360"
        stroke="#F59E0B" stroke-width="40" stroke-linecap="round" stroke-linejoin="round" fill="none"/>
</svg>
